<svg width="110" height="23" viewBox="0 0 110 23" fill="none" xmlns="http://www.w3.org/2000/svg">
<path d="M0.184 22V2.4H8.164C9.52667 2.4 10.8053 2.66133 12 3.184C13.2133 3.688 14.2587 4.37867 15.136 5.256C16.032 6.13333 16.732 7.17867 17.236 8.392C17.7587 9.58667 18.02 10.8747 18.02 12.256C18.02 13.6 17.7587 14.8693 17.236 16.064C16.732 17.2587 16.032 18.2947 15.136 19.172C14.2587 20.0493 13.2133 20.74 12 21.244C10.8053 21.748 9.52667 22 8.164 22H0.184ZM8.164 6.516H5V17.884H8.164C8.836 17.884 9.47067 17.744 10.068 17.464C10.6653 17.1653 11.1787 16.764 11.608 16.26C12.056 15.756 12.4013 15.1587 12.644 14.468C12.9053 13.7773 13.036 13.04 13.036 12.256C13.036 11.4533 12.9053 10.7067 12.644 10.016C12.4013 9.30667 12.056 8.7 11.608 8.196C11.1787 7.67333 10.6653 7.26267 10.068 6.964C9.47067 6.66533 8.836 6.516 8.164 6.516ZM34.0854 19.956C33.1521 20.7773 32.2094 21.3747 31.2574 21.748C30.3054 22.1027 29.2228 22.28 28.0094 22.28C26.9454 22.28 25.9468 22.0933 25.0134 21.72C24.0988 21.328 23.2961 20.796 22.6054 20.124C21.9148 19.452 21.3734 18.6587 20.9814 17.744C20.5894 16.8293 20.3934 15.8493 20.3934 14.804C20.3934 13.74 20.5801 12.7507 20.9534 11.836C21.3268 10.9213 21.8308 10.128 22.4654 9.456C23.1188 8.784 23.8934 8.26133 24.7894 7.888C25.6854 7.496 26.6468 7.3 27.6734 7.3C28.7188 7.3 29.6708 7.496 30.5294 7.888C31.4068 8.26133 32.1534 8.784 32.7694 9.456C33.4041 10.128 33.8988 10.94 34.2534 11.892C34.6081 12.8253 34.7854 13.852 34.7854 14.972V15.952H24.8454C25.0508 16.7547 25.4614 17.408 26.0774 17.912C26.6934 18.416 27.4121 18.668 28.2334 18.668C28.8308 18.668 29.3721 18.5653 29.8574 18.36C30.3614 18.1547 30.7721 17.856 31.0894 17.464L34.0854 19.956ZM27.6454 10.828C26.9361 10.828 26.3388 11.052 25.8534 11.5C25.3681 11.948 25.0321 12.5733 24.8454 13.376H30.5854C30.3988 12.592 30.0441 11.976 29.5214 11.528C28.9988 11.0613 28.3734 10.828 27.6454 10.828ZM36.3296 7.552H39.3256V5.648C39.3256 3.93067 39.8203 2.61467 40.8096 1.7C41.8176 0.785332 43.2456 0.327999 45.0936 0.327999C45.4856 0.327999 45.9056 0.355999 46.3536 0.411999C46.8203 0.468 47.2029 0.533333 47.5016 0.607998V4.332C47.0909 4.25733 46.7549 4.21067 46.4936 4.192C46.2509 4.17333 46.0083 4.164 45.7656 4.164C45.1309 4.164 44.6549 4.29467 44.3376 4.556C44.0203 4.81733 43.8616 5.20933 43.8616 5.732V7.552H47.5016V11.052H43.8616V22H39.3256V11.052H36.3296V7.552ZM52.3445 5.312C51.6352 5.312 51.0285 5.06933 50.5245 4.584C50.0392 4.08 49.7965 3.48267 49.7965 2.792C49.7965 2.10133 50.0485 1.504 50.5525 0.999998C51.0565 0.495999 51.6538 0.244 52.3445 0.244C53.0352 0.244 53.6325 0.495999 54.1365 0.999998C54.6592 1.504 54.9205 2.10133 54.9205 2.792C54.9205 3.48267 54.6685 4.08 54.1645 4.584C53.6792 5.06933 53.0725 5.312 52.3445 5.312ZM54.6125 7.552V22H50.0765V7.552H54.6125ZM58.5629 22V2.4H66.5429C67.9056 2.4 69.1842 2.66133 70.3789 3.184C71.5922 3.688 72.6376 4.37867 73.5149 5.256C74.4109 6.13333 75.1109 7.17867 75.6149 8.392C76.1376 9.58667 76.3989 10.8747 76.3989 12.256C76.3989 13.6 76.1376 14.8693 75.6149 16.064C75.1109 17.2587 74.4109 18.2947 73.5149 19.172C72.6376 20.0493 71.5922 20.74 70.3789 21.244C69.1842 21.748 67.9056 22 66.5429 22H58.5629ZM66.5429 6.516H63.3789V17.884H66.5429C67.2149 17.884 67.8496 17.744 68.4469 17.464C69.0442 17.1653 69.5576 16.764 69.9869 16.26C70.4349 15.756 70.7802 15.1587 71.0229 14.468C71.2842 13.7773 71.4149 13.04 71.4149 12.256C71.4149 11.4533 71.2842 10.7067 71.0229 10.016C70.7802 9.30667 70.4349 8.7 69.9869 8.196C69.5576 7.67333 69.0442 7.26267 68.4469 6.964C67.8496 6.66533 67.2149 6.516 66.5429 6.516ZM92.4643 19.956C91.531 20.7773 90.5883 21.3747 89.6363 21.748C88.6843 22.1027 87.6017 22.28 86.3883 22.28C85.3243 22.28 84.3257 22.0933 83.3923 21.72C82.4777 21.328 81.675 20.796 80.9843 20.124C80.2937 19.452 79.7523 18.6587 79.3603 17.744C78.9683 16.8293 78.7723 15.8493 78.7723 14.804C78.7723 13.74 78.959 12.7507 79.3323 11.836C79.7057 10.9213 80.2097 10.128 80.8443 9.456C81.4977 8.784 82.2723 8.26133 83.1683 7.888C84.0643 7.496 85.0257 7.3 86.0523 7.3C87.0977 7.3 88.0497 7.496 88.9083 7.888C89.7857 8.26133 90.5323 8.784 91.1483 9.456C91.783 10.128 92.2777 10.94 92.6323 11.892C92.987 12.8253 93.1643 13.852 93.1643 14.972V15.952H83.2243C83.4297 16.7547 83.8403 17.408 84.4563 17.912C85.0723 18.416 85.791 18.668 86.6123 18.668C87.2097 18.668 87.751 18.5653 88.2363 18.36C88.7403 18.1547 89.151 17.856 89.4683 17.464L92.4643 19.956ZM86.0243 10.828C85.315 10.828 84.7177 11.052 84.2323 11.5C83.747 11.948 83.411 12.5733 83.2243 13.376H88.9643C88.7777 12.592 88.423 11.976 87.9003 11.528C87.3777 11.0613 86.7523 10.828 86.0243 10.828ZM93.5183 22L98.8663 14.72L93.5463 7.552H98.7823L101.442 11.416L104.13 7.552H109.17L103.934 14.608L109.506 22H104.242L101.386 17.884L98.5303 22H93.5183Z" fill="white"/>
</svg>
